<svg width="46" height="45" viewBox="0 0 46 45" fill="none" xmlns="http://www.w3.org/2000/svg">
<mask id="path-1-inside-1_31380_1" fill="white">
<path d="M45.5 22.5C45.5 34.9264 35.4264 45 23 45C10.5736 45 0.5 34.9264 0.5 22.5C0.5 10.0736 10.5736 0 23 0C35.4264 0 45.5 10.0736 45.5 22.5Z"/>
</mask>
<path d="M45.5 22.5C45.5 34.9264 35.4264 45 23 45C10.5736 45 0.5 34.9264 0.5 22.5C0.5 10.0736 10.5736 0 23 0C35.4264 0 45.5 10.0736 45.5 22.5Z" fill="white"/>
<path d="M43.5 22.5C43.5 33.8218 34.3218 43 23 43V47C36.531 47 47.5 36.031 47.5 22.5H43.5ZM23 43C11.6782 43 2.5 33.8218 2.5 22.5H-1.5C-1.5 36.031 9.46902 47 23 47V43ZM2.5 22.5C2.5 11.1782 11.6782 2 23 2V-2C9.46902 -2 -1.5 8.96902 -1.5 22.5H2.5ZM23 2C34.3218 2 43.5 11.1782 43.5 22.5H47.5C47.5 8.96902 36.531 -2 23 -2V2Z" fill="#F13C6E" mask="url(#path-1-inside-1_31380_1)"/>
<path d="M29.0749 15H16.1069C13.5626 15 11.5 17.1025 11.5 19.696V26.304C11.5 28.8975 13.5626 31 16.1069 31H29.0749C31.6192 31 33.6818 28.8975 33.6818 26.304V19.696C33.6818 17.1025 31.6192 15 29.0749 15ZM25.9593 23.3215L19.8938 26.2704C19.7321 26.3489 19.5454 26.2288 19.5454 26.0463V19.9643C19.5454 19.7792 19.737 19.6592 19.899 19.7429L25.9646 22.8761C26.1449 22.9692 26.1418 23.2328 25.9593 23.3215Z" fill="#F13C6E"/>
</svg>
